{"glyphs":{"A":{"ha":786,"x_min":0,"x_max":0,"o":"m 53 0 b 1 53 25 0 1 21 l 346 994 b 393 1026 354 1015 371 1026 b 440 994 415 1026 433 1015 l 785 53 b 733 0 785 18 758 0 b 686 33 708 0 693 17 l 600 265 l 186 265 l 100 33 b 53 0 89 8 71 0 m 561 369 l 393 825 l 225 369 "},"B":{"ha":786,"x_min":0,"x_max":0,"o":"m 147 0 b 97 53 119 0 97 25 l 97 974 b 147 1026 97 1001 121 1026 l 413 1026 b 660 769 550 1026 660 908 b 522 578 660 685 614 621 b 731 308 661 528 731 438 b 433 0 731 138 594 0 l 147 0 m 413 617 b 560 769 500 617 560 690 b 413 921 560 850 494 921 l 199 921 l 199 617 m 433 104 b 629 308 547 104 629 203 b 433 513 629 419 543 513 l 199 513 l 199 104 "},"C":{"ha":786,"x_min":0,"x_max":0,"o":"m 407 0 b 117 303 244 0 117 139 l 117 724 b 407 1026 117 888 244 1026 b 697 724 569 1026 697 888 b 647 671 697 690 672 671 b 597 724 619 671 597 694 b 407 921 597 831 513 921 b 217 724 297 921 217 826 l 217 303 b 407 104 217 196 301 104 b 597 303 518 104 597 199 b 647 354 597 336 624 354 b 697 303 675 354 697 332 b 407 0 697 139 568 0 "},"D":{"ha":786,"x_min":0,"x_max":0,"o":"m 169 0 b 119 53 142 0 119 24 l 119 974 b 169 1026 119 1007 144 1026 l 410 1026 b 700 724 572 1026 700 888 l 700 303 b 410 0 700 139 571 0 l 169 0 m 410 104 b 600 303 514 104 600 197 l 600 724 b 410 922 600 833 510 922 l 219 922 l 219 104 "},"E":{"ha":786,"x_min":0,"x_max":0,"o":"m 160 0 b 111 53 133 0 111 22 l 111 974 b 160 1026 111 1001 132 1026 l 668 1026 b 717 972 694 1026 717 1003 b 668 921 717 940 692 921 l 210 921 l 210 565 l 565 565 b 615 513 592 565 615 543 b 565 461 615 481 589 461 l 210 461 l 210 104 l 668 104 b 717 51 694 104 717 81 b 668 0 717 19 690 0 l 160 0 "},"F":{"ha":786,"x_min":0,"x_max":0,"o":"m 201 0 b 153 53 175 0 153 22 l 153 974 b 201 1026 153 1001 174 1026 l 682 1026 b 732 974 708 1026 732 1001 b 682 921 732 942 706 921 l 251 921 l 251 565 l 579 565 b 629 513 606 565 629 543 b 579 461 629 481 603 461 l 251 461 l 251 53 b 201 0 251 19 225 0 "},"G":{"ha":786,"x_min":0,"x_max":0,"o":"m 393 0 b 103 303 231 0 103 139 l 103 724 b 393 1026 103 893 236 1026 b 683 738 554 1026 683 903 b 633 685 683 704 658 685 b 583 738 606 685 583 708 b 393 921 583 842 500 921 b 203 724 283 921 203 826 l 203 303 b 393 104 203 196 286 104 b 583 303 500 104 583 194 l 583 406 l 421 406 b 371 457 394 406 371 429 b 421 510 371 490 397 510 l 633 510 b 683 457 661 510 683 486 l 683 303 b 393 0 683 139 556 0 "},"H":{"ha":786,"x_min":0,"x_max":0,"o":"m 161 0 b 111 53 133 0 111 24 l 111 974 b 161 1026 111 1001 132 1026 b 211 974 188 1026 211 1001 l 211 565 l 575 565 l 575 974 b 625 1026 575 1001 599 1026 b 675 974 654 1026 675 1001 l 675 53 b 625 0 675 19 650 0 b 575 53 597 0 575 25 l 575 461 l 211 461 l 211 53 b 161 0 211 21 185 0 "},"I":{"ha":786,"x_min":0,"x_max":0,"o":"m 175 0 b 125 53 147 0 125 24 b 175 104 125 86 151 104 l 343 104 l 343 922 l 175 922 b 125 975 147 922 125 946 b 175 1026 125 1008 151 1026 l 611 1026 b 661 975 639 1026 661 1004 b 611 922 661 942 636 922 l 443 922 l 443 104 l 611 104 b 661 53 639 104 661 82 b 611 0 661 24 640 0 l 175 0 "},"J":{"ha":786,"x_min":0,"x_max":0,"o":"m 393 0 b 101 303 231 0 101 139 b 153 354 101 331 125 354 b 203 303 179 354 203 331 b 393 104 203 197 289 104 b 583 303 503 104 583 201 l 583 922 l 203 922 b 153 975 176 922 153 944 b 203 1026 153 1007 179 1026 l 633 1026 b 685 975 661 1026 685 1003 l 685 303 b 393 0 685 139 556 0 "},"K":{"ha":786,"x_min":0,"x_max":0,"o":"m 174 0 b 124 53 147 0 124 22 l 124 975 b 174 1026 124 1007 150 1026 b 225 975 201 1026 225 1003 l 225 472 l 553 1003 b 596 1026 563 1018 578 1026 b 646 974 624 1026 646 1001 b 638 947 646 965 643 956 l 428 607 l 739 79 b 746 50 743 69 746 60 b 696 0 746 21 722 0 b 653 25 676 0 663 8 l 367 508 l 225 278 l 225 53 b 174 0 225 24 203 0 "},"L":{"ha":786,"x_min":0,"x_max":0,"o":"m 182 0 b 147 15 169 0 157 6 b 132 53 138 25 132 38 l 132 975 b 147 1011 132 989 138 1001 b 182 1026 157 1021 169 1026 b 218 1011 196 1026 208 1021 b 233 975 228 1001 233 989 l 233 104 l 688 104 b 722 89 700 104 713 99 b 738 53 732 79 738 67 b 722 15 738 38 732 25 b 688 0 713 6 700 0 l 182 0 "},"M":{"ha":786,"x_min":0,"x_max":0,"o":"m 108 0 b 58 53 81 0 58 24 l 58 975 b 108 1026 58 1007 86 1026 b 154 997 129 1026 144 1017 l 393 492 l 632 997 b 678 1026 642 1017 657 1026 b 728 975 704 1026 728 1003 l 728 53 b 678 0 728 19 703 0 b 626 53 649 0 626 24 l 626 747 l 439 350 b 393 321 429 331 414 321 b 347 350 372 321 357 331 l 160 747 l 160 53 b 108 0 160 24 138 0 "},"N":{"ha":786,"x_min":0,"x_max":0,"o":"m 140 0 b 90 53 114 0 90 22 l 90 975 b 140 1026 90 1007 117 1026 b 183 1000 160 1026 174 1018 l 596 250 l 596 975 b 646 1026 596 1007 622 1026 b 696 975 672 1026 696 1003 l 696 53 b 646 0 696 19 669 0 b 603 26 625 0 611 8 l 190 776 l 190 53 b 140 0 190 19 164 0 "},"O":{"ha":786,"x_min":0,"x_max":0,"o":"m 393 -4 b 101 299 229 -4 101 133 l 101 724 b 393 1026 101 893 233 1026 b 685 724 556 1026 685 889 l 685 299 b 393 -4 685 133 556 -4 m 393 100 b 583 299 503 100 583 197 l 583 724 b 393 921 583 831 499 921 b 203 724 283 921 203 826 l 203 299 b 393 100 203 189 293 100 "},"P":{"ha":786,"x_min":0,"x_max":0,"o":"m 169 0 b 119 53 142 0 119 25 l 119 974 b 169 1026 119 1001 143 1026 l 392 1026 b 694 711 560 1026 694 882 b 392 396 694 536 556 396 l 221 396 l 221 53 b 169 0 221 24 199 0 m 392 501 b 593 711 500 501 593 596 b 392 921 593 824 503 921 l 221 921 l 221 501 "},"Q":{"ha":786,"x_min":0,"x_max":0,"o":"m 390 0 b 97 304 226 0 97 139 l 97 722 b 390 1026 97 888 226 1026 b 682 722 551 1026 682 888 l 682 304 b 633 136 682 243 665 188 l 685 79 b 694 51 692 71 694 61 b 643 0 694 19 665 0 b 617 10 636 0 626 3 l 563 60 b 390 0 511 19 454 0 m 390 104 b 492 135 425 104 460 114 l 354 276 b 339 314 344 286 339 299 b 390 367 339 343 361 367 b 425 351 406 367 417 361 l 560 211 b 582 304 575 243 582 274 l 582 722 b 390 921 582 832 490 921 b 199 722 279 921 199 824 l 199 304 b 390 104 199 197 282 104 "},"R":{"ha":786,"x_min":0,"x_max":0,"o":"m 164 0 b 114 53 136 0 114 25 l 114 974 b 164 1026 114 1001 138 1026 l 388 1026 b 692 711 557 1026 692 882 b 489 414 692 574 607 460 l 718 82 b 728 53 724 74 728 65 b 678 0 728 21 701 0 b 636 22 660 0 646 7 l 376 396 l 215 396 l 215 53 b 164 0 215 24 193 0 m 388 501 b 590 711 497 501 590 596 b 388 921 590 824 500 921 l 215 921 l 215 501 "},"S":{"ha":786,"x_min":0,"x_max":0,"o":"m 406 0 b 110 308 235 0 110 147 b 161 361 110 335 132 361 b 211 308 188 361 211 336 b 406 106 211 192 303 106 b 571 243 499 106 565 163 b 526 347 571 285 557 322 l 250 571 b 160 769 186 622 160 697 b 406 1026 160 908 263 1026 b 628 924 490 1026 568 988 b 676 829 649 899 676 854 b 626 775 676 800 651 775 b 581 807 608 775 590 790 b 406 921 538 885 479 921 b 260 767 318 921 260 844 b 314 653 260 721 279 681 l 590 429 b 671 240 646 383 671 317 b 406 0 665 94 544 0 "},"T":{"ha":786,"x_min":0,"x_max":0,"o":"m 393 0 b 342 53 364 0 342 22 l 342 921 l 57 921 b 6 974 28 921 6 943 b 57 1026 6 1004 28 1026 l 729 1026 b 781 974 758 1026 781 1004 b 729 921 781 943 758 921 l 444 921 l 444 53 b 393 0 444 22 422 0 "},"U":{"ha":786,"x_min":0,"x_max":0,"o":"m 393 0 b 101 304 225 0 101 143 l 101 974 b 151 1026 101 1001 122 1026 b 201 974 179 1026 201 1001 l 201 304 b 393 104 201 197 285 104 b 585 304 503 104 585 201 l 585 974 b 635 1026 585 1001 606 1026 b 685 974 663 1026 685 1001 l 685 304 b 393 0 685 133 553 0 "},"V":{"ha":786,"x_min":0,"x_max":0,"o":"m 393 0 b 346 33 368 0 353 10 l 75 946 b 71 972 72 956 71 964 b 121 1026 71 1006 92 1026 b 169 989 139 1026 161 1015 l 393 232 l 617 989 b 665 1026 625 1015 647 1026 b 717 976 697 1026 717 1008 b 711 946 717 967 714 957 l 440 33 b 393 0 433 10 418 0 "},"W":{"ha":786,"x_min":0,"x_max":0,"o":"m 108 0 b 57 53 79 0 57 24 l 57 974 b 108 1026 57 1001 79 1026 b 158 974 138 1026 158 1001 l 158 281 l 347 679 b 393 710 357 700 372 710 b 439 679 414 710 429 700 l 628 281 l 628 974 b 678 1026 628 1001 649 1026 b 729 974 710 1026 729 997 l 729 53 b 678 0 729 24 707 0 b 632 29 657 0 642 10 l 393 538 l 154 29 b 108 0 144 10 129 0 "},"X":{"ha":786,"x_min":0,"x_max":0,"o":"m 160 0 b 108 51 131 0 108 25 b 115 76 108 60 110 68 l 336 513 l 115 949 b 110 976 111 958 110 968 b 160 1026 110 1006 133 1026 b 204 997 179 1026 194 1017 l 393 625 l 582 997 b 626 1026 592 1017 607 1026 b 676 976 656 1026 676 1006 b 671 949 676 967 675 958 l 450 513 l 671 76 b 678 50 675 67 678 58 b 626 0 678 21 653 0 b 582 28 608 0 593 10 l 393 401 l 204 28 b 160 0 193 10 178 0 "},"Y":{"ha":786,"x_min":0,"x_max":0,"o":"m 393 0 b 343 53 367 0 343 22 l 343 500 l 117 949 b 110 974 113 958 110 967 b 160 1026 110 1001 133 1026 b 204 997 181 1026 194 1017 l 393 625 l 582 997 b 626 1026 592 1017 606 1026 b 676 974 653 1026 676 1001 b 669 949 676 967 674 958 l 443 500 l 443 53 b 393 0 443 19 417 0 "},"Z":{"ha":786,"x_min":0,"x_max":0,"o":"m 125 0 b 75 53 97 0 75 25 b 82 79 75 61 78 69 l 571 921 l 181 921 b 129 974 151 921 129 944 b 181 1026 129 1001 151 1026 l 661 1026 b 711 974 688 1026 711 1001 b 704 946 711 964 708 956 l 215 104 l 661 104 b 711 53 688 104 711 81 b 661 0 711 21 685 0 l 125 0 "}," ":{"ha":786,"x_min":0,"x_max":0,"o":""}}}
